<?xml version="1.0" encoding="UTF-8" standalone="no"?>
<!-- Created with Inkscape (http://www.inkscape.org/) -->

<svg
   xmlns:dc="http://purl.org/dc/elements/1.1/"
   xmlns:cc="http://creativecommons.org/ns#"
   xmlns:rdf="http://www.w3.org/1999/02/22-rdf-syntax-ns#"
   xmlns:svg="http://www.w3.org/2000/svg"
   xmlns="http://www.w3.org/2000/svg"
   xmlns:sodipodi="http://sodipodi.sourceforge.net/DTD/sodipodi-0.dtd"
   xmlns:inkscape="http://www.inkscape.org/namespaces/inkscape"
   width="1000"
   height="1000.04"
   viewBox="0 0 264.58333 264.59392"
   version="1.1"
   id="svg17919"
   sodipodi:docname="Continental Horse (Orange).svg"
   inkscape:version="0.92.2 (5c3e80d, 2017-08-06)">
  <defs
     id="defs17913">
    <clipPath
       clipPathUnits="userSpaceOnUse"
       id="clipPath1537">
      <path
         d="M 0,841.89 H 595.275 V 0 H 0 Z"
         id="path1535"
         inkscape:connector-curvature="0" />
    </clipPath>
    <clipPath
       clipPathUnits="userSpaceOnUse"
       id="clipPath1543">
      <path
         d="M 0.029999,841.95 H 595.29 V 0.03 H 0.029999 Z"
         id="path1541"
         inkscape:connector-curvature="0" />
    </clipPath>
    <clipPath
       clipPathUnits="userSpaceOnUse"
       id="clipPath1565">
      <path
         d="M 558.06,85.04 H 363.037 V 53.542 H 558.06 Z"
         id="path1563"
         inkscape:connector-curvature="0" />
    </clipPath>
    <clipPath
       clipPathUnits="userSpaceOnUse"
       id="clipPath1713">
      <path
         d="M 0,841.89 H 595.275 V 0 H 0 Z"
         id="path1711"
         inkscape:connector-curvature="0" />
    </clipPath>
    <clipPath
       clipPathUnits="userSpaceOnUse"
       id="clipPath1719">
      <path
         d="M 0.029999,841.95 H 595.29 V 0.03 H 0.029999 Z"
         id="path1717"
         inkscape:connector-curvature="0" />
    </clipPath>
    <clipPath
       clipPathUnits="userSpaceOnUse"
       id="clipPath1745">
      <path
         d="M 558.06,85.04 H 363.037 V 53.542 H 558.06 Z"
         id="path1743"
         inkscape:connector-curvature="0" />
    </clipPath>
    <clipPath
       clipPathUnits="userSpaceOnUse"
       id="clipPath1893">
      <path
         d="M 0,841.89 H 595.275 V 0 H 0 Z"
         id="path1891"
         inkscape:connector-curvature="0" />
    </clipPath>
    <clipPath
       clipPathUnits="userSpaceOnUse"
       id="clipPath1899">
      <path
         d="M 0.029999,841.95 H 595.29 V 0.03 H 0.029999 Z"
         id="path1897"
         inkscape:connector-curvature="0" />
    </clipPath>
    <clipPath
       clipPathUnits="userSpaceOnUse"
       id="clipPath1949">
      <path
         d="m 155.887,338.28 c 0,-32.859 -26.668,-59.527 -59.527,-59.527 -32.859,0 -59.527,26.668 -59.527,59.527 0,32.859 26.668,59.527 59.527,59.527 32.859,0 59.527,-26.668 59.527,-59.527"
         id="path1947"
         inkscape:connector-curvature="0"
         style="clip-rule:evenodd" />
    </clipPath>
    <clipPath
       clipPathUnits="userSpaceOnUse"
       id="clipPath1955">
      <path
         d="M 0,841.89 H 595.275 V 0 H 0 Z"
         id="path1953"
         inkscape:connector-curvature="0" />
    </clipPath>
    <clipPath
       clipPathUnits="userSpaceOnUse"
       id="clipPath1961">
      <path
         d="M 0.029999,841.95 H 595.29 V 0.03 H 0.029999 Z"
         id="path1959"
         inkscape:connector-curvature="0" />
    </clipPath>
    <clipPath
       clipPathUnits="userSpaceOnUse"
       id="clipPath1973">
      <path
         d="M 0,841.89 H 595.275 V 0 H 0 Z"
         id="path1971"
         inkscape:connector-curvature="0" />
    </clipPath>
    <clipPath
       clipPathUnits="userSpaceOnUse"
       id="clipPath1979">
      <path
         d="M 0.029999,841.95 H 595.29 V 0.03 H 0.029999 Z"
         id="path1977"
         inkscape:connector-curvature="0" />
    </clipPath>
    <clipPath
       clipPathUnits="userSpaceOnUse"
       id="clipPath1995">
      <path
         d="m 272.113,653.4 c 0,-43.03 -34.923,-77.953 -77.953,-77.953 -43.03,0 -77.953,34.923 -77.953,77.953 0,43.03 34.923,77.953 77.953,77.953 43.03,0 77.953,-34.923 77.953,-77.953"
         id="path1993"
         inkscape:connector-curvature="0"
         style="clip-rule:evenodd" />
    </clipPath>
    <clipPath
       clipPathUnits="userSpaceOnUse"
       id="clipPath2001">
      <path
         d="M 0,841.89 H 595.275 V 0 H 0 Z"
         id="path1999"
         inkscape:connector-curvature="0" />
    </clipPath>
    <clipPath
       clipPathUnits="userSpaceOnUse"
       id="clipPath2007">
      <path
         d="M 0.029999,841.95 H 595.29 V 0.03 H 0.029999 Z"
         id="path2005"
         inkscape:connector-curvature="0" />
    </clipPath>
    <clipPath
       clipPathUnits="userSpaceOnUse"
       id="clipPath2019">
      <path
         d="M 0,841.89 H 595.275 V 0 H 0 Z"
         id="path2017"
         inkscape:connector-curvature="0" />
    </clipPath>
    <clipPath
       clipPathUnits="userSpaceOnUse"
       id="clipPath2025">
      <path
         d="M 0.029999,841.95 H 595.29 V 0.03 H 0.029999 Z"
         id="path2023"
         inkscape:connector-curvature="0" />
    </clipPath>
    <clipPath
       clipPathUnits="userSpaceOnUse"
       id="clipPath2045">
      <path
         d="m 496.958,624.78 c 0,-32.859 -26.669,-59.527 -59.528,-59.527 -32.859,0 -59.528,26.668 -59.528,59.527 0,32.859 26.669,59.527 59.528,59.527 32.859,0 59.528,-26.668 59.528,-59.527"
         id="path2043"
         inkscape:connector-curvature="0"
         style="clip-rule:evenodd" />
    </clipPath>
    <clipPath
       clipPathUnits="userSpaceOnUse"
       id="clipPath2051">
      <path
         d="M 0,841.89 H 595.275 V 0 H 0 Z"
         id="path2049"
         inkscape:connector-curvature="0" />
    </clipPath>
    <clipPath
       clipPathUnits="userSpaceOnUse"
       id="clipPath2057">
      <path
         d="M 0.029999,841.95 H 595.29 V 0.03 H 0.029999 Z"
         id="path2055"
         inkscape:connector-curvature="0" />
    </clipPath>
    <clipPath
       clipPathUnits="userSpaceOnUse"
       id="clipPath2069">
      <path
         d="M 0,841.89 H 595.275 V 0 H 0 Z"
         id="path2067"
         inkscape:connector-curvature="0" />
    </clipPath>
    <clipPath
       clipPathUnits="userSpaceOnUse"
       id="clipPath2075">
      <path
         d="M 0.029999,841.95 H 595.29 V 0.03 H 0.029999 Z"
         id="path2073"
         inkscape:connector-curvature="0" />
    </clipPath>
    <clipPath
       clipPathUnits="userSpaceOnUse"
       id="clipPath2093">
      <path
         d="m 511.928,421.02 c 0,-32.859 -26.669,-59.527 -59.528,-59.527 -32.859,0 -59.528,26.668 -59.528,59.527 0,32.859 26.669,59.527 59.528,59.527 32.859,0 59.528,-26.668 59.528,-59.527"
         id="path2091"
         inkscape:connector-curvature="0"
         style="clip-rule:evenodd" />
    </clipPath>
    <clipPath
       clipPathUnits="userSpaceOnUse"
       id="clipPath2099">
      <path
         d="M 0,841.89 H 595.275 V 0 H 0 Z"
         id="path2097"
         inkscape:connector-curvature="0" />
    </clipPath>
    <clipPath
       clipPathUnits="userSpaceOnUse"
       id="clipPath2105">
      <path
         d="M 0.029999,841.95 H 595.29 V 0.03 H 0.029999 Z"
         id="path2103"
         inkscape:connector-curvature="0" />
    </clipPath>
    <clipPath
       clipPathUnits="userSpaceOnUse"
       id="clipPath2117">
      <path
         d="M 0,841.89 H 595.275 V 0 H 0 Z"
         id="path2115"
         inkscape:connector-curvature="0" />
    </clipPath>
    <clipPath
       clipPathUnits="userSpaceOnUse"
       id="clipPath2123">
      <path
         d="M 0.029999,841.95 H 595.29 V 0.03 H 0.029999 Z"
         id="path2121"
         inkscape:connector-curvature="0" />
    </clipPath>
    <clipPath
       clipPathUnits="userSpaceOnUse"
       id="clipPath2141">
      <path
         d="m 324.128,443.88 c 0,-32.859 -26.669,-59.527 -59.528,-59.527 -32.859,0 -59.528,26.668 -59.528,59.527 0,32.859 26.669,59.527 59.528,59.527 32.859,0 59.528,-26.668 59.528,-59.527"
         id="path2139"
         inkscape:connector-curvature="0"
         style="clip-rule:evenodd" />
    </clipPath>
    <clipPath
       clipPathUnits="userSpaceOnUse"
       id="clipPath2147">
      <path
         d="M 0,841.89 H 595.275 V 0 H 0 Z"
         id="path2145"
         inkscape:connector-curvature="0" />
    </clipPath>
    <clipPath
       clipPathUnits="userSpaceOnUse"
       id="clipPath2153">
      <path
         d="M 0.029999,841.95 H 595.29 V 0.03 H 0.029999 Z"
         id="path2151"
         inkscape:connector-curvature="0" />
    </clipPath>
    <clipPath
       clipPathUnits="userSpaceOnUse"
       id="clipPath2165">
      <path
         d="M 0,841.89 H 595.275 V 0 H 0 Z"
         id="path2163"
         inkscape:connector-curvature="0" />
    </clipPath>
    <clipPath
       clipPathUnits="userSpaceOnUse"
       id="clipPath2171">
      <path
         d="M 0.029999,841.95 H 595.29 V 0.03 H 0.029999 Z"
         id="path2169"
         inkscape:connector-curvature="0" />
    </clipPath>
    <clipPath
       clipPathUnits="userSpaceOnUse"
       id="clipPath1745-3">
      <path
         d="M 558.06,85.04 H 363.037 V 53.542 H 558.06 Z"
         id="path1743-6"
         inkscape:connector-curvature="0" />
    </clipPath>
  </defs>
  <sodipodi:namedview
     id="base"
     pagecolor="#ffffff"
     bordercolor="#666666"
     borderopacity="1.0"
     inkscape:pageopacity="0.0"
     inkscape:pageshadow="2"
     inkscape:zoom="0.49497475"
     inkscape:cx="683.19197"
     inkscape:cy="445.88006"
     inkscape:document-units="px"
     inkscape:current-layer="layer1"
     showgrid="false"
     units="px"
     inkscape:window-width="1366"
     inkscape:window-height="705"
     inkscape:window-x="-8"
     inkscape:window-y="-8"
     inkscape:window-maximized="1" />
  <metadata
     id="metadata17916">
    <rdf:RDF>
      <cc:Work
         rdf:about="">
        <dc:format>image/svg+xml</dc:format>
        <dc:type
           rdf:resource="http://purl.org/dc/dcmitype/StillImage" />
        <dc:title></dc:title>
      </cc:Work>
    </rdf:RDF>
  </metadata>
  <g
     inkscape:label="Layer 1"
     inkscape:groupmode="layer"
     id="layer1"
     transform="translate(0,-32.406069)">
    <path
       inkscape:connector-curvature="0"
       id="path1785"
       style="fill:#f9a01b;fill-opacity:1;fill-rule:nonzero;stroke:none;stroke-width:10.56094551"
       d="m 132.28637,75.388978 c -49.319577,0 -89.303383,39.983732 -89.303383,89.313892 0,49.31966 39.983806,89.30339 89.303383,89.30339 49.33017,0 89.3139,-39.98373 89.3139,-89.30339 0,-49.33016 -39.98373,-89.313892 -89.3139,-89.313892 z m 0,-3.654084 c 51.33676,0 92.96798,41.620716 92.96798,92.967976 0,51.33676 -41.63122,92.95747 -92.96798,92.95747 -51.34734,0 -92.957467,-41.62071 -92.957467,-92.95747 0,-51.34726 41.610127,-92.967976 92.957467,-92.967976" />
    <path
       inkscape:connector-curvature="0"
       id="path1789"
       style="fill:#f9a01b;fill-opacity:1;fill-rule:nonzero;stroke:none;stroke-width:10.56094551"
       d="m 132.28637,36.060153 c -71.043474,0 -128.6322864,57.599399 -128.6322864,128.642877 0,71.05406 57.5888124,128.64288 128.6322864,128.64288 71.04348,0 128.64288,-57.58882 128.64288,-128.64288 0,-71.043478 -57.5994,-128.642877 -128.64288,-128.642877 z m 0,-3.654084 c 73.07117,0 132.29696,59.225798 132.29696,132.296961 0,73.06065 -59.22579,132.29696 -132.29696,132.29696 C 59.215211,296.99999 0,237.76368 0,164.70303 0,91.631867 59.215211,32.406069 132.28637,32.406069" />
    <path
       d="m 238.63499,171.87419 h 7.60685 v -7.61767 h -7.60685 z"
       style="fill:#f9a01b;fill-opacity:1;fill-rule:nonzero;stroke:none;stroke-width:10.56094551"
       id="path1791"
       inkscape:connector-curvature="0" />
    <path
       inkscape:connector-curvature="0"
       id="path1795"
       style="fill:#f9a01b;fill-opacity:1;fill-rule:nonzero;stroke:none;stroke-width:10.56094551"
       d="m 138.95022,60.857494 0.008,-19.463847 h 4.06596 v 25.958854 h -4.42506 L 126.33768,47.867558 v 19.484943 h -4.07655 V 41.393647 h 4.64683 l 12.03946,19.463847" />
    <path
       inkscape:connector-curvature="0"
       id="path1799"
       style="fill:#f9a01b;fill-opacity:1;fill-rule:nonzero;stroke:none;stroke-width:10.56094551"
       d="m 84.719844,55.313276 -7.89955,3.189431 -1.415207,-3.516844 19.664452,-7.952406 1.425794,3.527432 -7.899628,3.189353 8.300914,20.541055 -3.875861,1.563034 -8.300914,-20.541055" />
    <path
       inkscape:connector-curvature="0"
       id="path1803"
       style="fill:#f9a01b;fill-opacity:1;fill-rule:nonzero;stroke:none;stroke-width:10.56094551"
       d="M 75.943691,78.029686 64.231567,62.48397 67.484364,60.033825 83.104032,80.754388 79.566092,83.426312 58.053464,75.241619 69.776097,90.797844 66.5233,93.24799 50.90371,72.527426 l 3.696275,-2.788067 21.343706,8.290327" />
    <path
       inkscape:connector-curvature="0"
       id="path1807"
       style="fill:#f9a01b;fill-opacity:1;fill-rule:nonzero;stroke:none;stroke-width:10.56094551"
       d="m 191.69184,79.392115 10.3075,-16.496194 3.46399,2.154416 -13.7504,22.00904 -3.75964,-2.344511 -0.0778,-23.012374 -10.3286,16.517367 -3.45348,-2.154415 13.75039,-22.00904 3.93923,2.460732 -0.095,22.874979" />
    <path
       inkscape:connector-curvature="0"
       id="path1811"
       style="fill:#f9a01b;fill-opacity:1;fill-rule:nonzero;stroke:none;stroke-width:10.56094551"
       d="m 155.59432,65.630587 14.59524,4.182101 -1.05611,3.654084 -18.60842,-5.34377 7.14983,-24.945011 18.37598,5.269973 -1.04553,3.654084 -14.35228,-4.118814 -1.91155,6.664007 13.25399,3.791323 -1.05611,3.654083 -13.2434,-3.801909 -2.10164,7.339849" />
    <path
       inkscape:connector-curvature="0"
       id="path1815"
       style="fill:#f9a01b;fill-opacity:1;fill-rule:nonzero;stroke:none;stroke-width:10.56094551"
       d="m 231.09461,100.32348 -9.95899,2.30232 3.66467,5.62891 z m -13.45466,17.31994 4.78414,-6.07255 -5.19602,-8.00518 -7.57221,1.78481 -2.36561,-3.64357 27.07826,-5.945741 2.39736,3.696275 -16.6546,22.009036 -2.47132,-3.82308" />
    <path
       inkscape:connector-curvature="0"
       id="path1819"
       style="fill:#f9a01b;fill-opacity:1;fill-rule:nonzero;stroke:none;stroke-width:10.56094551"
       d="m 103.98316,44.499007 4.09764,-0.866017 5.38612,25.377981 -4.08713,0.866016 -5.39663,-25.37798" />
    <path
       inkscape:connector-curvature="0"
       id="path1823"
       style="fill:#f9a01b;fill-opacity:1;fill-rule:nonzero;stroke:none;stroke-width:10.56094551"
       d="m 215.23215,78.526332 -6.01977,-6.019768 2.68251,-2.682433 14.99653,14.996526 -2.68244,2.693019 -6.01976,-6.030277 -15.66186,15.661859 -2.95707,-2.94648 15.66186,-15.672446" />
    <path
       inkscape:connector-curvature="0"
       id="path1827"
       style="fill:#f9a01b;fill-opacity:1;fill-rule:nonzero;stroke:none;stroke-width:10.56094551"
       d="m 247.33727,118.2875 1.22503,4.0026 -21.18521,6.47383 3.72803,12.19795 -3.63299,1.10889 -4.94256,-16.20054 24.8077,-7.58273" />
    <path
       inkscape:connector-curvature="0"
       id="path1831"
       style="fill:#f9a01b;fill-opacity:1;fill-rule:nonzero;stroke:none;stroke-width:10.56094551"
       d="m 16.813019,118.23535 c 2.175589,-5.40721 6.769564,-8.1636 12.398554,-6.62174 l -1.510255,3.75972 c -3.749131,-0.65467 -6.083055,1.07721 -7.360945,4.27715 -1.615812,3.99208 -0.02335,8.45932 5.956403,10.87779 5.417721,2.18617 10.127916,1.87986 12.324601,-3.59072 1.520764,-3.75964 -0.570597,-6.83293 -3.823083,-8.95566 l 1.520764,-3.77023 c 5.935307,3.4745 7.984088,8.80776 5.62899,14.62684 -2.21778,5.50226 -7.994597,9.40981 -17.161527,5.70295 -7.329263,-2.96766 -10.814425,-9.27249 -7.973502,-16.3061" />
    <path
       inkscape:connector-curvature="0"
       id="path1835"
       style="fill:#f9a01b;fill-opacity:1;fill-rule:nonzero;stroke:none;stroke-width:10.56094551"
       d="m 230.85182,240.34087 c -5.85077,7.76231 -14.09883,5.2277 -18.51337,1.90096 -4.41447,-3.32668 -9.12466,-10.56097 -3.2739,-18.3232 5.85077,-7.76231 14.1095,-5.21712 18.51337,-1.90103 4.40388,3.32675 9.12467,10.56096 3.2739,18.32327 z m -18.75625,-14.13051 c -3.12606,4.13983 -1.79532,9.12459 2.81975,12.60975 4.62574,3.47457 9.77949,3.36894 12.89497,-0.76054 3.12599,-4.1505 1.79532,-9.13525 -2.80924,-12.62033 -4.61515,-3.47458 -9.79,-3.37953 -12.90548,0.77065" />
    <path
       inkscape:connector-curvature="0"
       id="path1839"
       style="fill:#f9a01b;fill-opacity:1;fill-rule:nonzero;stroke:none;stroke-width:10.56094551"
       d="m 125.91825,268.6542 v 19.46385 h -4.08705 v -25.94827 h 4.43556 l 12.26124,19.47436 v -19.47436 h 4.07654 v 25.94827 H 137.9683 L 125.91825,268.6542" />
    <path
       inkscape:connector-curvature="0"
       id="path1843"
       style="fill:#f9a01b;fill-opacity:1;fill-rule:nonzero;stroke:none;stroke-width:10.56094551"
       d="m 180.18032,274.16705 7.89955,-3.18943 1.4152,3.51684 -19.66445,7.95241 -1.42579,-3.52744 7.88904,-3.18935 -8.29033,-20.54105 3.87586,-1.56304 8.30092,20.54106" />
    <path
       inkscape:connector-curvature="0"
       id="path1847"
       style="fill:#f9a01b;fill-opacity:1;fill-rule:nonzero;stroke:none;stroke-width:10.56094551"
       d="m 188.91428,251.51377 11.71212,15.54571 -3.2528,2.46074 -15.61966,-20.73115 3.53794,-2.67193 21.51262,8.1847 -11.73322,-15.55623 3.26339,-2.45015 15.61959,20.72057 -3.71745,2.78807 -21.32253,-8.29033" />
    <path
       inkscape:connector-curvature="0"
       id="path1851"
       style="fill:#f9a01b;fill-opacity:1;fill-rule:nonzero;stroke:none;stroke-width:10.56094551"
       d="m 72.986546,250.19415 -10.307503,16.50678 -3.463988,-2.15449 13.760905,-22.00896 3.749131,2.34451 0.07784,23.0123 10.318013,-16.51729 3.464065,2.165 -13.760982,22.00896 -3.92864,-2.46065 0.09497,-22.89616" />
    <path
       inkscape:connector-curvature="0"
       id="path1855"
       style="fill:#f9a01b;fill-opacity:1;fill-rule:nonzero;stroke:none;stroke-width:10.56094551"
       d="m 109.0523,263.97631 -14.595239,-4.1821 1.045525,-3.65408 18.619004,5.33326 -7.16034,24.95552 -18.376053,-5.26998 1.056111,-3.65408 14.352292,4.11881 1.90095,-6.65342 -13.243396,-3.80191 1.045525,-3.65408 13.253981,3.80191 2.10164,-7.33985" />
    <path
       inkscape:connector-curvature="0"
       id="path1859"
       style="fill:#f9a01b;fill-opacity:1;fill-rule:nonzero;stroke:none;stroke-width:10.56094551"
       d="m 33.63647,229.22029 9.958995,-2.29174 -3.664671,-5.6395 z m 13.454665,-17.31995 -4.784147,6.07255 5.196021,8.00518 7.572215,-1.78481 2.365606,3.64358 -27.078253,5.94574 -2.397367,-3.68577 16.654606,-22.01955 2.471319,3.82308" />
    <path
       inkscape:connector-curvature="0"
       id="path1863"
       style="fill:#f9a01b;fill-opacity:1;fill-rule:nonzero;stroke:none;stroke-width:10.56094551"
       d="m 160.86437,285.03433 -4.08705,0.87652 -5.3967,-25.38849 4.09764,-0.86601 5.38611,25.37798" />
    <path
       inkscape:connector-curvature="0"
       id="path1867"
       style="fill:#f9a01b;fill-opacity:1;fill-rule:nonzero;stroke:none;stroke-width:10.56094551"
       d="m 49.467485,251.05994 6.030277,6.01976 -2.69302,2.68244 -14.996525,-14.99653 2.682433,-2.68251 6.030355,6.01977 15.651272,-15.66186 2.967654,2.95707 -15.672446,15.66186" />
    <path
       inkscape:connector-curvature="0"
       id="path1871"
       style="fill:#f9a01b;fill-opacity:1;fill-rule:nonzero;stroke:none;stroke-width:10.56094551"
       d="m 17.372875,211.37248 -1.225034,-4.00259 21.195802,-6.47383 -3.728036,-12.19795 3.632988,-1.10889 4.942483,16.20054 -24.818203,7.58272" />
    <path
       inkscape:connector-curvature="0"
       id="path1875"
       style="fill:#f9a01b;fill-opacity:1;fill-rule:nonzero;stroke:none;stroke-width:10.56094551"
       d="m 247.98151,211.39311 c -2.1861,5.40721 -6.76957,8.1636 -12.39856,6.61115 l 1.51026,-3.74913 c 3.74913,0.65467 6.07247,-1.07721 7.36094,-4.27715 1.61581,-3.99208 0.0234,-8.45932 -5.9564,-10.87779 -5.42831,-2.18617 -10.12792,-1.87986 -12.33519,3.59072 -1.51018,3.75964 0.58072,6.83293 3.83367,8.94508 l -1.52076,3.78081 c -5.93531,-3.4745 -7.98409,-8.80776 -5.62899,-14.62684 2.20719,-5.51285 7.98409,-9.40981 17.16152,-5.70295 7.32927,2.96766 10.81443,9.27249 7.97351,16.3061" />
    <path
       d="m 16.770828,171.87419 h 7.614328 v -7.61767 h -7.614328 z"
       style="fill:#f9a01b;fill-opacity:1;fill-rule:nonzero;stroke:none;stroke-width:10.56094551"
       id="path1877"
       inkscape:connector-curvature="0" />
    <path
       inkscape:connector-curvature="0"
       id="path1881"
       style="fill:#f9a01b;fill-opacity:1;fill-rule:nonzero;stroke:none;stroke-width:10.56094551"
       d="m 183.65474,230.5399 -3.82309,4.39337 H 84.550844 l -3.823083,-4.39337 h 56.131409 c 0.80266,-2.165 2.36569,-6.28374 2.51351,-6.35769 1.6475,-1.34126 3.82309,-3.41121 5.37553,-5.48116 0.30593,-0.35887 6.35769,-2.42898 8.5227,-3.98142 2.12273,-1.54194 5.26989,-3.61189 4.44614,-6.91747 -0.87652,-3.25272 -6.30491,-7.8045 -6.39995,-8.32201 -0.11599,-0.46473 -4.24547,-4.69961 -4.9108,-6.91739 -0.67569,-2.17559 -0.2639,-4.19269 -0.2639,-4.19269 l 2.00659,-6.45273 c 0,0 -18.22822,2.11214 -20.0975,1.85868 -1.85868,-0.31682 -5.57613,-0.98216 -5.57613,-0.98216 l -14.16227,-5.26989 -1.18284,1.85868 -2.78807,0.98216 -20.931753,-10.75098 -3.622479,0.10587 c 0,0 -6.716707,8.16359 -6.917389,9.7689 -0.200838,1.44681 0.781555,4.07654 0.781555,4.07654 l -0.475628,1.19335 c 0,0 -3.717449,-1.29898 -4.034274,0.4118 -0.401676,2.48183 3.622401,2.99933 3.622401,2.99933 l 0.411795,1.96432 -8.681027,7.59331 c 0,0 -1.70035,-10.43423 -1.70035,-10.75105 1.96432,-5.93523 1.182842,-3.98142 2.471241,-10.43416 0,0 6.927976,-8.01577 9.462661,-13.28567 l 7.698867,-2.42905 1.193429,1.34126 8.480423,2.7458 -9.568218,-9.452 -5.840181,-1.39403 -8.681105,4.59397 -1.394034,1.96432 -1.710859,1.0878 c 0,0 -3.453479,-3.56963 -4.900291,-0.78148 -1.035016,2.0171 2.524019,3.30557 2.999258,3.51676 l -0.675687,2.73529 -9.663265,2.99934 2.21778,-11.98668 c 0.105868,0.10587 4.245466,-2.27064 6.769564,-6.35769 6.621737,-1.75313 14.415652,-3.92872 17.679035,-5.89304 l 5.364943,1.76372 1.974907,2.27056 7.128659,3.30557 c 0,0 2.788067,-8.57547 4.646752,-11.31076 1.85876,-2.74587 4.03435,-4.29832 6.55837,-7.23421 1.55245,-1.9644 4.60456,-3.9815 7.2343,-6.71679 2.74579,-2.74587 2.90421,-5.2277 2.90421,-5.2277 l 0.7076,-6.04087 -4.12932,-0.77065 -0.87661,-0.88712 -6.61115,1.08772 c -3.56954,1.64757 -5.396622,4.75247 -8.322006,0.10587 l 0.210958,-1.55245 1.341177,-0.51766 6.769561,-1.44681 0.20084,-2.165 -1.95373,-1.24621 -6.928057,2.22837 -2.069877,-1.24621 -0.105868,-1.59472 0.887112,-1.44681 0.770658,-1.08779 v -1.76372 l 1.394033,-0.77066 h 2.112146 l 13.591983,-4.499002 1.08779,-0.971573 11.21572,-2.851432 v -8.881788 l 8.21637,10.951664 c 2.42905,-0.570597 3.41121,-0.105868 3.87586,0.876604 1.39411,2.640237 -1.658,2.830337 -0.98216,4.498927 0.77066,1.93271 3.72804,-0.67569 4.7102,2.5241 0.76054,2.95706 -2.60856,2.56629 -1.97491,4.29832 0.60174,1.6264 3.41121,-0.5706 4.13991,1.64749 0.97157,3.46399 -2.69302,2.49234 -2.53461,4.49893 0.13701,1.83767 2.7458,0.98216 2.62966,3.92872 -0.095,2.84084 -2.93597,1.37294 -3.24221,3.0943 -0.32773,1.76372 2.51351,0.82375 2.165,4.03428 -0.42269,3.30565 -2.99934,1.5842 -3.2633,3.41121 -0.22186,1.58413 2.74579,1.96432 1.19335,3.92872 -2.06996,2.73528 -3.12607,0.5597 -3.51677,2.11214 -0.44371,1.80591 2.62965,1.29899 2.06995,4.29832 -0.21095,1.75313 -3.82308,1.48908 -3.82308,1.48908 0,0 0.51767,3.8336 2.42897,5.94582 l 5.89304,1.85876 9.14576,0.5706 c 0,0 11.52203,-1.91154 19.06256,-0.10587 5.58672,1.39404 11.12066,8.42765 11.52195,8.62833 1.85876,0.87653 5.58672,1.08772 7.70953,-0.66557 2.26005,-1.85868 7.11807,-4.9108 11.31076,-5.22762 2.84085,-0.095 6.76956,1.08779 9.19853,7.23421 2.27064,5.5868 -6.25205,26.10668 -5.16426,35.45312 0.30593,2.94648 3.61182,4.48842 3.61182,4.48842 -7.23422,4.29832 -17.77409,-3.40062 -17.77409,-11.31076 0,-7.80458 1.19343,-4.91088 3.6119,-13.84544 2.32341,-8.8923 -0.30671,-8.73389 -1.54194,-10.28633 -1.19335,-1.55245 -3.46399,-0.66557 -3.46399,-0.66557 l -5.42831,2.05937 c 3.30558,9.66326 0.10587,12.3035 -1.59471,14.83811 -3.88645,6.04086 -2.12274,9.09298 -1.86927,10.74047 0.62275,2.64024 2.37619,6.25214 3.92864,7.69895 1.44688,1.44689 4.39336,3.51676 4.39336,3.51676 l -0.35886,2.64024 c -3.41121,2.62974 -7.64616,7.38212 -10.60323,13.32794 -0.80265,1.63699 -1.84818,4.28774 -1.84818,4.28774 l -0.35886,2.28114 c 0,0 -5.68184,-0.99267 -6.67459,1.07729 0,0 -1.2884,2.58738 2.42905,2.94648 l -0.23198,0.98216 z m -35.54817,0 h 11.79658 l 2.05937,-4.85802 4.07654,-4.39337 c 1.18285,-0.98216 8.00519,-7.02303 9.55764,-9.39922 1.49966,-2.22837 2.52409,-2.85151 2.17558,-5.73462 -0.41179,-2.94648 -7.03361,-6.26265 -8.89229,-7.91014 -1.86927,-1.71086 -5.17485,-5.58672 -4.92139,-9.87446 -1.33075,1.49959 -2.11222,0.46473 -2.51351,4.65734 -0.36976,4.34059 4.59397,10.53987 6.66393,13.27508 0.51766,0.7185 1.02443,1.19343 1.18284,1.39411 l -0.20084,1.65801 -1.60522,1.19343 c 0,0 -10.69828,7.69894 -12.81043,9.65267 -1.56303,1.44689 -0.99275,3.21053 -0.99275,3.21053 l -1.08779,1.85876 c 0,0 -5.68177,-0.98216 -6.65342,1.0878 0,0 -1.29899,2.5768 2.41846,2.93589 l -0.25377,1.24621" />
    <path
       inkscape:connector-curvature="0"
       id="path1885"
       style="fill:#f9a01b;fill-opacity:1;fill-rule:evenodd;stroke:none;stroke-width:10.56094551"
       d="m 33.9322,89.044248 c 5.840181,-7.76231 14.098826,-5.227703 18.513369,-1.900955 4.403879,3.326671 9.114075,10.560964 3.273893,18.323197 -5.850768,7.76231 -14.109491,5.2277 -18.51337,1.90103 C 32.791627,104.04077 28.070844,96.806558 33.9322,89.044248 Z m 18.756243,14.130512 c 3.11548,-4.139834 1.795321,-9.124586 -2.830336,-12.609748 -4.615148,-3.474575 -9.779409,-3.379527 -12.894888,0.760538 -3.126067,4.150496 -1.795399,9.13525 2.819749,12.62033 4.615148,3.47458 9.779409,3.37953 12.905475,-0.77066" />
  </g>
</svg>
